<?xml version="1.0" encoding="UTF-8" standalone="no"?>
<svg
   width="24"
   height="23.408232"
   viewBox="0 0 24 23.408232"
   version="1.1"
   id="svg1933"
   sodipodi:docname="iconmonstr-github-1.svg"
   inkscape:version="1.1.1 (3bf5ae0d25, 2021-09-20)"
   xmlns:inkscape="http://www.inkscape.org/namespaces/inkscape"
   xmlns:sodipodi="http://sodipodi.sourceforge.net/DTD/sodipodi-0.dtd"
   xmlns="http://www.w3.org/2000/svg"
   xmlns:svg="http://www.w3.org/2000/svg">
  <defs
     id="defs1937">
    <linearGradient
       id="linearGradient4628"
       inkscape:swatch="solid">
      <stop
         style="stop-color:#eeeeee;stop-opacity:1;"
         offset="0"
         id="stop4626" />
    </linearGradient>
  </defs>
  <sodipodi:namedview
     id="namedview1935"
     pagecolor="#505050"
     bordercolor="#ffffff"
     borderopacity="1"
     inkscape:pageshadow="0"
     inkscape:pageopacity="0"
     inkscape:pagecheckerboard="1"
     showgrid="false"
     inkscape:zoom="11.313709"
     inkscape:cx="-4.1100582"
     inkscape:cy="14.71666"
     inkscape:window-width="1920"
     inkscape:window-height="1009"
     inkscape:window-x="-8"
     inkscape:window-y="-8"
     inkscape:window-maximized="1"
     inkscape:current-layer="svg1933" />
  <path
     d="M 12,0 C 5.374,0 0,5.373 0,12 0,17.302 3.438,21.8 8.207,23.387 8.806,23.498 9,23.126 9,22.81 V 20.576 C 5.662,21.302 4.967,19.16 4.967,19.16 4.421,17.773 3.634,17.404 3.634,17.404 2.545,16.659 3.717,16.675 3.717,16.675 c 1.205,0.084 1.839,1.237 1.839,1.237 1.07,1.834 2.807,1.304 3.492,0.997 C 9.155,18.134 9.466,17.604 9.81,17.305 7.145,17 4.343,15.971 4.343,11.374 4.343,10.063 4.812,8.993 5.579,8.153 5.455,7.85 5.044,6.629 5.696,4.977 c 0,0 1.008,-0.322 3.301,1.23 C 9.954,5.941 10.98,5.808 12,5.803 c 1.02,0.005 2.047,0.138 3.006,0.404 2.291,-1.552 3.297,-1.23 3.297,-1.23 0.653,1.653 0.242,2.874 0.118,3.176 0.77,0.84 1.235,1.911 1.235,3.221 0,4.609 -2.807,5.624 -5.479,5.921 0.43,0.372 0.823,1.102 0.823,2.222 v 3.293 c 0,0.319 0.192,0.694 0.801,0.576 C 20.566,21.797 24,17.3 24,12 24,5.373 18.627,0 12,0 Z"
     id="path1931"
     style="opacity:1;fill:#eeeeee;fill-opacity:1;stroke:none;stroke-opacity:1" />
</svg>
