<?xml version="1.0" encoding="UTF-8" standalone="no"?>
<!-- Created with Inkscape (http://www.inkscape.org/) -->

<svg
   width="207.01443mm"
   height="116.89339mm"
   viewBox="0 0 207.01443 116.89339"
   version="1.1"
   id="svg5"
   sodipodi:docname="soundcloud-1.svg"
   inkscape:version="1.1.1 (3bf5ae0d25, 2021-09-20)"
   xmlns:inkscape="http://www.inkscape.org/namespaces/inkscape"
   xmlns:sodipodi="http://sodipodi.sourceforge.net/DTD/sodipodi-0.dtd"
   xmlns="http://www.w3.org/2000/svg"
   xmlns:svg="http://www.w3.org/2000/svg">
  <sodipodi:namedview
     id="namedview7"
     pagecolor="#505050"
     bordercolor="#ffffff"
     borderopacity="1"
     inkscape:pageshadow="0"
     inkscape:pageopacity="0"
     inkscape:pagecheckerboard="1"
     inkscape:document-units="mm"
     showgrid="false"
     inkscape:zoom="0.51906082"
     inkscape:cx="286.09364"
     inkscape:cy="209.03138"
     inkscape:window-width="1920"
     inkscape:window-height="1009"
     inkscape:window-x="-8"
     inkscape:window-y="-8"
     inkscape:window-maximized="1"
     inkscape:current-layer="layer1" />
  <defs
     id="defs2" />
  <g
     inkscape:label="Layer 1"
     inkscape:groupmode="layer"
     id="layer1"
     transform="translate(-1.3019603,-88.996563)">
    <path
       d="m 11.304333,135.63752 c -0.442664,0 -0.806019,0.35585 -0.86175,0.84674 l -2.0397077,18.58779 2.0397077,18.17727 c 0.05571,0.48232 0.419086,0.83818 0.86175,0.83818 0.435168,0 0.791019,-0.34728 0.861763,-0.83818 l 2.308733,-18.17727 -2.308733,-18.59636 c -0.07182,-0.48983 -0.42767,-0.83817 -0.861763,-0.83817 z m -7.6539777,7.12449 c -0.435167,0 -0.774937,0.33227 -0.830673,0.80602 l -1.517722,11.50402 1.517722,11.29929 c 0.0557,0.47268 0.395506,0.80602 0.830673,0.80602 0.419085,0 0.758861,-0.33334 0.829598,-0.80602 l 1.786753,-11.29929 -1.786753,-11.50402 c -0.07074,-0.47482 -0.410513,-0.80602 -0.829598,-0.80602 z M 19.432072,131.99327 c -0.545566,0 -0.980733,0.42659 -1.03647,1.01931 l -1.929304,22.05947 1.929304,21.24486 c 0.05571,0.5938 0.490904,1.01932 1.03647,1.01932 0.536988,0 0.972155,-0.42552 1.043968,-1.01075 l 2.189756,-21.25343 -2.189756,-22.05947 c -0.07181,-0.59272 -0.50698,-1.01931 -1.043968,-1.01931 z m 8.19847,-0.77494 c -0.640958,0 -1.16187,0.51341 -1.210103,1.19402 l -1.826408,22.66077 1.826408,21.92548 c 0.04718,0.67955 0.569145,1.19188 1.210103,1.19188 0.640958,0 1.161871,-0.51341 1.217608,-1.19188 l 2.072928,-21.92548 -2.072928,-22.66826 c -0.05466,-0.67312 -0.57665,-1.18653 -1.217608,-1.18653 z m 9.654028,45.96034 z m 0,-43.13819 c -0.04716,-0.77494 -0.647387,-1.36016 -1.383738,-1.36016 -0.751358,0 -1.344082,0.58522 -1.391241,1.37623 l -1.723513,21.0155 1.723513,22.10662 c 0.04718,0.78137 0.640958,1.37624 1.391241,1.37624 0.736351,0 1.336578,-0.59487 1.383738,-1.37624 l 1.961464,-22.10662 z m 6.950858,-14.71417 c -0.838175,0 -1.526293,0.67955 -1.565952,1.55738 l -1.620616,34.20443 1.620616,22.09805 c 0.03966,0.86283 0.727777,1.54988 1.565952,1.54988 0.8221,0 1.510219,-0.69026 1.564883,-1.55845 v 0.009 l 1.826409,-22.09804 -1.826409,-34.21194 c -0.05574,-0.86926 -0.742783,-1.54988 -1.564883,-1.54988 z m 8.269216,-7.88336 c -0.941072,0 -1.707434,0.76744 -1.747093,1.73209 l -1.510215,42.03206 1.510215,21.96407 c 0.03966,0.95715 0.806021,1.72243 1.747093,1.72243 0.924996,0 1.699933,-0.76636 1.739591,-1.73101 v 0.009 l 1.716009,-21.96407 -1.716009,-42.03206 c -0.03966,-0.96465 -0.813525,-1.73209 -1.739591,-1.73209 z m 8.595054,-3.79429 c -1.043968,0 -1.889647,0.83817 -1.920728,1.91322 l -1.415897,45.53375 1.415897,21.73362 c 0.03108,1.05897 0.877833,1.89822 1.920728,1.89822 1.027893,0 1.873569,-0.83817 1.913227,-1.90465 v 0.0171 l 1.588463,-21.74433 -1.588463,-45.53374 c -0.03966,-1.07506 -0.885334,-1.91323 -1.913227,-1.91323 z m 10.626184,0.37943 c -0.03966,-1.17045 -0.957151,-2.08794 -2.095438,-2.08794 -1.146865,0 -2.071861,0.91749 -2.095441,2.08794 l -1.311926,47.06861 1.311926,21.60822 a 2.099727,2.099727 0 0 0 2.095441,2.07293 c 1.138287,0 2.055779,-0.91642 2.095438,-2.08687 l 1.470559,-21.59321 z m 0,68.66075 v 0.0161 z m 6.499615,-69.7208 c -1.241187,0 -2.245496,0.99681 -2.269079,2.26157 l -1.202599,45.86602 1.202599,21.40349 c 0.02357,1.25727 1.027892,2.25515 2.269079,2.25515 1.241184,0 2.237993,-0.99788 2.277652,-2.26908 v 0.0225 l 1.34408,-21.41098 -1.34408,-45.86602 c -0.04073,-1.26585 -1.036468,-2.26266 -2.277652,-2.26266 z m 8.665794,1.50271 c -1.344084,0 -2.419132,1.07506 -2.45129,2.44272 l -1.091128,44.18859 1.097559,21.26201 c 0.02357,1.35266 1.098633,2.42771 2.442716,2.42771 1.344081,0 2.427707,-1.07505 2.45129,-2.44272 v 0.0171 l 1.23261,-21.26093 -1.23261,-44.19716 a 2.4523611,2.4523611 0 0 0 -2.449147,-2.43736 z m 10.183517,-8.1288 a 2.6270704,2.6270704 0 0 0 -1.446981,-0.442671 c -0.521984,0 -1.011811,0.157561 -1.423397,0.426591 a 2.6549381,2.6549381 0 0 0 -1.202602,2.18976 l -0.01606,0.4984 -0.98073,52.07945 c 0,0.0311 0.995736,21.13554 0.995736,21.13554 v 0.0858 c 0.03215,0.59487 0.252952,1.13829 0.617376,1.56595 a 2.6077773,2.6077773 0 0 0 2.008622,0.9593 c 0.711699,0 1.36016,-0.30119 1.833911,-0.77602 0.473751,-0.47482 0.774937,-1.12328 0.791015,-1.84355 l 0.110398,-2.09544 0.996809,-19.02295 -1.107207,-52.58643 A 2.6924524,2.6924524 0 0 0 97.074822,100.342 Z m 1.177945,75.88814 v -0.01 0.01 -0.015 0.006 z m 7.494277,-80.868964 a 2.740685,2.740685 0 0 0 -3.193,0.237947 2.8157135,2.8157135 0 0 0 -1.03539,2.150104 l -0.008,0.292611 -1.14472,57.069922 0.58522,10.54793 0.56915,10.27034 c 0.0161,1.51772 1.27334,2.77606 2.79749,2.77606 1.52736,0 2.78463,-1.25834 2.80713,-2.79857 v 0.0225 l 1.24119,-20.81827 -1.24119,-57.362529 a 2.8510841,2.8510841 0 0 0 -1.37837,-2.388052 z m 77.10789,32.599894 c -3.48775,0 -6.8158,0.70313 -9.85124,1.97646 -2.0247,-22.94479 -21.26952,-40.940917 -44.73522,-40.940917 a 45.518736,45.518736 0 0 0 -16.29513,3.036512 c -1.9218,0.742783 -2.42771,1.510215 -2.45022,2.996854 v 80.813231 c 0.0225,1.55738 1.23047,2.76748 2.75034,2.91754 0.0632,0.009 70.58255,0 70.58255,0 14.0657,0 25.46039,-11.26714 25.46039,-25.33285 -0.001,-14.06571 -11.39576,-25.46683 -25.46147,-25.46683 z M 21.629332,194.08153 c -2.980775,-0.70206 -3.786794,-1.08256 -3.786794,-2.25943 0,-0.82961 0.672041,-1.69243 2.688164,-1.69243 1.723512,0 3.067594,0.69455 4.277698,1.93895 l 2.720321,-2.63351 c -1.779249,-1.85641 -3.930425,-2.96576 -6.862966,-2.96576 -3.707484,0 -6.720416,2.10294 -6.720416,5.51888 0,3.70748 2.419132,4.81469 5.890811,5.61213 3.54992,0.80602 4.190878,1.35266 4.190878,2.56276 0,1.4234 -1.051471,2.04721 -3.281957,2.04721 -1.802828,0 -3.494189,-0.62381 -4.814692,-2.15868 l -2.711743,2.42021 c 1.423398,2.09543 4.167298,3.41594 7.313141,3.41594 5.13195,0 7.401023,-2.41163 7.401023,-5.99478 -0.0012,-4.09442 -3.314115,-5.10515 -6.303468,-5.81149 z m 17.324087,-7.61218 c -5.131951,0 -8.167388,3.98508 -8.167388,9.71083 0,5.73325 3.036511,9.70977 8.167388,9.70977 5.139457,0 8.174897,-3.97652 8.174897,-9.70977 0,-5.72575 -3.03544,-9.71083 -8.174897,-9.71083 z m 0,15.68739 c -3.036512,0 -4.301278,-2.61635 -4.301278,-5.97656 0,-3.36021 1.264766,-5.96906 4.301278,-5.96906 3.044017,0 4.308784,2.60993 4.308784,5.96906 0,3.35699 -1.264767,5.97656 -4.308784,5.97656 z m 23.372461,-4.81576 c 0,3.00435 -1.479135,4.86935 -3.866113,4.86935 -2.395553,0 -3.851108,-1.91323 -3.851108,-4.92616 v -10.51686 h -3.763217 v 10.57153 c 0,5.48672 3.067597,8.54789 7.614325,8.54789 4.783604,0 7.630402,-3.14691 7.630402,-8.60149 v -10.51685 h -3.763217 z m 20.01011,-2.60885 c 0,1.04397 0.04716,3.41594 0.04716,4.11156 -0.236877,-0.48232 -0.853181,-1.42233 -1.312999,-2.12545 l -6.674324,-9.94664 h -3.604586 v 18.82466 h 3.716057 v -8.28529 c 0,-1.0504 -0.05574,-3.41702 -0.05574,-4.11157 0.245451,0.48126 0.861758,1.4234 1.313,2.12653 l 6.9187,10.27033 h 3.360208 V 186.7716 h -3.708553 v 7.96053 z m 14.438702,-7.96267 h -5.882237 v 18.82573 h 5.613206 c 4.840409,0 9.631519,-2.79857 9.631519,-9.41822 0,-6.88441 -3.98616,-9.40751 -9.362488,-9.40751 z m -0.269031,15.16541 h -1.856417 v -11.50295 h 2.000044 c 3.976512,0 5.621782,1.90358 5.621782,5.74719 -0.002,3.44595 -1.81247,5.75576 -5.765409,5.75576 z m 21.277019,-11.72589 c 1.69136,0 2.76748,0.75886 3.4481,2.03863 l 3.48561,-1.60346 c -1.18438,-2.45129 -3.32698,-4.17588 -6.87904,-4.17588 -4.92402,0 -8.36354,3.98616 -8.36354,9.70976 0,5.94763 3.3034,9.71084 8.22955,9.71084 3.41702,0 5.66895,-1.58203 6.96694,-4.25519 l -3.18014,-1.88214 c -0.99573,1.66992 -1.98504,2.4052 -3.68497,2.4052 -2.82214,0 -4.46741,-2.59384 -4.46741,-5.97871 0,-3.49418 1.62169,-5.96905 4.4449,-5.96905 z m 13.96281,-3.43952 h -3.76429 v 18.82573 h 11.32073 v -3.70962 h -7.55965 v -15.11718 h 0.003 z m 17.46557,-0.30011 c -5.13195,0 -8.17703,3.98508 -8.17703,9.71083 0,5.73325 3.04508,9.70977 8.17703,9.70977 5.13945,0 8.18347,-3.97652 8.18347,-9.70977 0,-5.72575 -3.04402,-9.71083 -8.18347,-9.71083 z m 0,15.68739 c -3.03651,0 -4.30235,-2.61635 -4.30235,-5.97656 0,-3.36021 1.26584,-5.96906 4.30235,-5.96906 3.04401,0 4.30235,2.60993 4.30235,5.96906 0,3.35699 -1.25834,5.97656 -4.30235,5.97656 z m 23.37353,-4.81576 c 0,3.00435 -1.47163,4.86935 -3.86611,4.86935 -2.39556,0 -3.85218,-1.91323 -3.85218,-4.92616 v -10.51686 h -3.76214 v 10.57153 c 0,5.48672 3.06652,8.54789 7.61432,8.54789 4.7836,0 7.63683,-3.14691 7.63683,-8.60149 v -10.51685 h -3.77072 z m 14.36475,-10.57152 h -5.89081 v 18.82573 h 5.61213 c 4.85434,0 9.63152,-2.79857 9.63152,-9.41822 0.001,-6.88441 -3.96901,-9.40751 -9.35284,-9.40751 z m -0.27868,15.16541 h -1.84892 v -11.50295 h 1.9904 c 3.97759,0 5.61213,1.90358 5.61213,5.74719 0.003,3.44595 -1.78996,5.75576 -5.75361,5.75576 z"
       id="path824"
       style="fill:#eeeeee;fill-opacity:1;stroke-width:1.07184" />
  </g>
</svg>
